<svg id="brush" xmlns="http://www.w3.org/2000/svg" viewBox="0 0 100 100"><defs><style>.cls-1{fill:#1119;}.cls-2{fill:#111;}</style></defs><path class="cls-1" d="M16.16,21l68.2,0L80.59,87.64a9.34,9.34,0,0,1-7,7.42L27.21,95A8.46,8.46,0,0,1,20,87.86Q18.09,54.44,16.16,21Z"/><path class="cls-2" d="M16.17,22c10.41-.09,68.35.12,71.65-.13a2.51,2.51,0,0,0,1.51-.55,2.54,2.54,0,0,0,.78-1.47v-6.9a2.33,2.33,0,0,0-.51-1.54,2.43,2.43,0,0,0-1.88-.81L66,10.62,64.29,6.87a3.94,3.94,0,0,0-1-1.08,4,4,0,0,0-1.66-.73l-22.71,0a4.74,4.74,0,0,0-1.52.81,4.79,4.79,0,0,0-1.13,1.32l-1.86,3.38H12.8a2.59,2.59,0,0,0-2.21,2.2l.05,7.05a2.48,2.48,0,0,0,.64,1.47A2.42,2.42,0,0,0,12.6,22Z"/></svg>